<svg xmlns="http://www.w3.org/2000/svg" xmlns:xlink="http://www.w3.org/1999/xlink" version="1.1" width="1000" height="1000" viewBox="0 0 1000 1000" xml:space="preserve">
<desc>Created with Fabric.js 3.5.0</desc>
<defs>
</defs>
<rect x="0" y="0" width="100%" height="100%" fill="#ffffff"/>
<g transform="matrix(19.7012 0 0 19.7012 500.0004 500.0006)" id="225324">
<path style="stroke: none; stroke-width: 1; stroke-dasharray: none; stroke-linecap: butt; stroke-dashoffset: 0; stroke-linejoin: miter; stroke-miterlimit: 4; is-custom-font: none; font-file-url: none; fill: rgb(174,156,127); fill-rule: nonzero; opacity: 1;" vector-effect="non-scaling-stroke" transform=" translate(-28.5043, -30.056)" d="M 44.5363 48.264 V 53.128 H 15.9923 L 14.9683 49.8 C 16.7603 47.7947 18.0829 45.8747 18.9363 44.04 C 19.8323 42.2053 20.2803 39.944 20.2803 37.256 C 20.2803 36.1467 20.0883 34.824 19.7043 33.288 H 12.4723 V 29.192 H 18.2963 C 17.7416 27.6987 17.3149 26.2907 17.0163 24.968 C 16.7176 23.6027 16.5683 22.1093 16.5683 20.488 C 16.5683 17.7573 17.1443 15.3893 18.2963 13.384 C 19.4909 11.336 21.1336 9.75733 23.2243 8.648 C 25.3576 7.53866 27.7896 6.984 30.5203 6.984 C 34.8723 6.984 38.2216 8.24266 40.5683 10.76 C 42.9149 13.2773 44.1736 16.456 44.3443 20.296 H 38.9683 C 38.8829 17.7787 38.1149 15.752 36.6643 14.216 C 35.2563 12.68 33.2083 11.912 30.5203 11.912 C 28.0456 11.912 26.0189 12.6373 24.4403 14.088 C 22.9043 15.5387 22.1363 17.7573 22.1363 20.744 C 22.1363 22.152 22.2856 23.496 22.5843 24.776 C 22.8829 26.0133 23.3309 27.4853 23.9283 29.192 H 36.3443 V 33.288 H 25.2083 C 25.5923 34.824 25.7843 36.1467 25.7843 37.256 C 25.7843 41.3093 24.2696 44.9787 21.2403 48.264 H 44.5363 Z" stroke-linecap="round"/>
</g>
</svg>