<svg xmlns="http://www.w3.org/2000/svg" version="1.1" xmlns:xlink="http://www.w3.org/1999/xlink" width="512" height="512" x="0" y="0" viewBox="0 0 396.204 396.204" style="enable-background:new 0 0 512 512" xml:space="preserve" class=""><g><path d="M293.155 199.954c.256-.358.512-.768.717-1.126 3.942-6.81 3.994-15.155.102-21.965a23.677 23.677 0 0 0 7.424-14.08c.87-6.042-.256-11.622-2.918-16.179 4.659-4.506 7.526-10.803 7.475-17.766 0-5.581-1.946-10.752-5.12-14.899 4.147-4.454 6.707-10.445 6.707-16.998-.051-12.442-9.574-22.835-21.76-24.269l8.602-14.848s0-.051.051-.051c0-.051.051-.102.051-.102.051-.102.102-.256.205-.41 0-.051.051-.051.051-.102 3.482-6.861 2.714-15.667-2.099-23.04a24.717 24.717 0 0 0-12.339-9.83c-.154-6.195-2.509-12.032-6.758-16.486a25.034 25.034 0 0 0-26.931-6.144l-5.069 1.946c-.051 0-.102.051-.154.051-.051 0-.102.051-.154.051-4.71 2.048-10.086 2.048-14.746 0-.051 0-.051 0-.102-.051-.051 0-.051-.051-.102-.051l-4.864-1.946h-.051s-.051 0-.051-.051a25.034 25.034 0 0 0-26.931 6.144c-3.277 3.43-5.376 7.782-6.144 12.595-5.478-.307-11.059 1.434-15.514 5.069-7.987 6.656-10.496 17.459-6.042 26.368 0 .051.051.102.051.154 0 0 0 .051.051.051l1.382 2.56c-7.475 2.816-13.67 7.424-18.842 14.08l-.102.102-.102.102c-2.97 4.096-6.656 7.68-10.547 10.342-4.198 2.867-9.114 4.403-14.182 4.403l-49.203.205c-4.813 0-8.704 3.942-8.653 8.755 0 4.813 3.891 8.653 8.704 8.653h.051l49.203-.205c8.55-.051 16.845-2.611 23.91-7.424 5.53-3.789 10.445-8.55 14.592-14.234 3.635-4.659 7.987-7.629 13.517-9.216l.819 1.485c1.28 2.406 3.789 3.738 6.298 3.738 1.126 0 2.304-.256 3.379-.87 3.482-1.894 4.762-6.246 2.918-9.728l-4.147-7.68c-.102-.256-.256-.461-.358-.666l-5.99-11.059c-1.382-2.867-.358-6.605 2.406-8.909 2.099-1.741 4.966-2.253 7.526-1.434l10.24 38.4c-3.123 1.331-5.325 4.454-5.325 8.038a8.696 8.696 0 0 0 8.704 8.704l80.128-.205c3.84.051 6.963 3.226 7.014 7.066 0 3.891-3.226 7.27-7.066 7.373h-38.4c-4.813 0-8.704 3.891-8.704 8.704s3.891 8.704 8.704 8.704h37.069c3.789.154 6.758 3.277 6.81 7.066a7.193 7.193 0 0 1-6.605 7.168h-36.403c-4.813 0-8.704 3.891-8.704 8.704s3.891 8.704 8.704 8.704h35.533c3.533 1.382 3.226 5.478 3.072 6.758-.461 3.021-2.867 5.171-6.093 5.427h-33.434c-4.813 0-8.704 3.891-8.704 8.704s3.891 8.704 8.704 8.704h30.157c1.638 0 3.174.819 3.994 2.253.87 1.434.87 3.226 0 4.71a4.766 4.766 0 0 1-4.096 2.304h-.204l-78.643.205c-16.333-.307-32.205-5.376-45.926-14.694-7.117-4.813-15.411-7.373-24.013-7.373h-.256l-50.534.461c-4.813.051-8.653 3.994-8.602 8.806.051 4.762 3.942 8.602 8.704 8.602h.102l50.483-.461h.102a25.609 25.609 0 0 1 14.234 4.352c8.858 5.99 18.483 10.547 28.518 13.517a118.068 118.068 0 0 0-19.814 29.286c-7.526 15.872-11.52 33.536-11.469 51.098s4.096 35.174 11.776 50.995c7.629 15.77 18.944 29.952 32.666 40.909 14.694 11.776 33.075 18.227 51.866 18.227s37.171-6.451 51.866-18.176c28.006-22.374 44.083-55.859 44.186-91.904.05-32.359-13.467-63.899-36.558-86.171zM265.2 29.663c0 .051-.051.102-.051.154s-.051.102-.051.154L251.99 72.569l-37.734.102-11.315-42.394v-.102c-.563-1.843-1.997-8.448 1.792-12.442 2.97-3.123 7.475-4.147 11.469-2.611l4.762 1.894h.051c4.096 1.741 8.499 2.611 12.851 2.611s8.704-.87 12.8-2.611l5.069-1.946a10.624 10.624 0 0 1 11.52 2.611c2.764 2.92 3.532 7.63 1.945 11.982zm16.793 21.197-12.646 21.76h-2.355l10.445-33.894a10.923 10.923 0 0 1 3.277 3.226c1.945 3.071 2.457 6.655 1.279 8.908zm-7.372 313.6c-24.115 19.302-57.805 19.302-81.971 0-23.962-19.149-37.786-47.718-37.888-78.336-.051-29.542 12.595-57.242 34.867-76.442 1.997.154 3.994.256 5.99.307h.154l78.746-.205h.307a19.92 19.92 0 0 0 3.021-.205c21.658 19.149 34.458 47.462 34.406 76.595-.052 30.67-13.773 59.188-37.632 78.286z" fill="#000000" opacity="1" data-original="#000000" class=""></path><path d="M254.909 291.5c-6.298-2.458-12.698-3.328-18.842-4.147-3.635-.512-7.066-.973-10.342-1.741-5.325-1.229-9.574-3.328-12.595-6.246-2.304-2.202-3.584-5.069-3.584-8.09 0-2.867 1.178-5.632 3.328-7.731 4.096-3.994 10.342-6.758 16.64-7.373 7.322-.666 17.408.922 23.501 6.093 3.021 2.56 4.608 5.632 4.864 9.421.256 3.942 3.686 6.912 7.629 6.656 3.942-.256 6.912-3.686 6.656-7.629-.512-7.629-3.942-14.285-9.882-19.354-6.195-5.274-14.029-7.987-21.555-9.062v-17.306c0-3.942-3.226-7.168-7.168-7.168s-7.168 3.226-7.168 7.168v17.101c-8.96 1.229-17.459 5.222-23.552 11.162-4.966 4.864-7.68 11.264-7.629 18.074.051 6.912 2.918 13.466 8.038 18.33 4.915 4.71 11.418 8.038 19.251 9.882 3.942.922 7.885 1.434 11.674 1.997 5.581.768 10.854 1.485 15.565 3.328 5.171 1.997 8.96 5.581 10.086 9.574.922 3.277.512 5.99-1.382 8.55-4.659 6.246-16.486 10.086-25.293 10.189h-.358c-7.168 0-17.254-2.458-22.784-7.936-2.458-2.458-3.635-5.171-3.635-8.294 0-3.942-3.226-7.168-7.168-7.168s-7.168 3.226-7.168 7.168c0 7.014 2.714 13.414 7.936 18.534 7.168 7.117 17.613 10.547 26.47 11.622v16.998c0 3.942 3.226 7.168 7.168 7.168s7.168-3.226 7.168-7.168v-17.203c10.752-1.69 22.784-6.656 29.235-15.36 4.608-6.195 5.837-13.466 3.635-21.043-2.458-8.449-9.267-15.361-18.739-18.996z" fill="#000000" opacity="1" data-original="#000000" class=""></path></g></svg>