<svg xmlns="http://www.w3.org/2000/svgviewBox="0 0 500 500"" version="1.1" xmlns:xlink="http://www.w3.org/1999/xlink" width="512" height="512" x="0" y="0"  style="enable-background:new 0 0 512 512" xml:space="preserve" class=""><g><g fill="#141515" fill-rule="evenodd" clip-rule="evenodd"><path d="M471.27 271.174h-53.03c-5.046 0-9.149 3.994-9.313 8.952h-15.205c-3.669 0-6.539 2.886-6.539 6.569v5.964h-1.466c-33.332-30.141-62.358-26.009-99.002-20.798-4.443.631-9.002 1.277-13.724 1.888-28.411 3.781-37.886 2.682-73.141-1.425l-9.669-1.125c-12.04-1.43-28.09 1.68-34.878 11.984-2.188 3.323-3.989 8.295-2.479 14.91-13.068-5.455-24.126-10.589-34.873-15.581-13.378-6.213-27.21-12.641-44.725-19.582-22.533-8.89-41.484-1.979-46.802 9.842-3.211 7.13-1.801 18.076 12.737 25.454 26.233 13.251 48.323 25.449 69.681 37.24 21.414 11.826 43.555 24.05 69.904 37.356 4.794 2.423 10.804 5.959 17.165 9.705 20.121 11.841 44.293 26.07 62.928 26.07 3.984 0 7.715-.652 11.098-2.112 23.927-10.314 52.725-17.928 88.021-23.266h29.225v4.773c0 3.618 2.931 6.564 6.539 6.564h15.22c.238 4.969 4.3 8.952 9.298 8.952h53.03a3.729 3.729 0 0 0 3.73-3.73V274.905a3.73 3.73 0 0 0-3.73-3.731zM357.678 375.759c-.188 0-.371.015-.555.041-36.069 5.44-65.553 13.236-90.142 23.836-15.745 6.809-45.535-10.732-67.284-23.536-6.468-3.806-12.58-7.404-17.592-9.933-26.222-13.246-48.302-25.439-69.655-37.229-21.419-11.827-43.57-24.06-69.92-37.367-8.356-4.239-11.832-10.122-9.302-15.734 2.168-4.824 9.379-9.516 20.086-9.516 5.013 0 10.788 1.028 17.17 3.547 17.312 6.859 31.046 13.241 44.323 19.409 13.007 6.045 26.457 12.289 43.407 19.078.222.091.454.115.684.16.106.051.181.14.294.181 33.79 12.452 65.319 18.727 94.005 18.727 5.761 0 11.409-.25 16.936-.758 2.051-.188 3.562-2.005 3.374-4.056s-2.03-3.542-4.056-3.374c-31.785 2.919-67.848-2.93-107.169-17.367-3.008-5.725-3.335-10.652-.749-14.58 4.259-6.457 15.948-10.101 27.774-8.676l9.684 1.125c35.993 4.188 45.667 5.313 74.968 1.409 4.738-.61 9.333-1.262 13.811-1.898 36.456-5.175 62.786-8.931 93.97 19.882a3.73 3.73 0 0 0 2.529.993h2.916v75.64h-29.507zm36.965 3.73v-91.903h14.253v99.512h-14.253zm72.897-64.154h-30.242a3.73 3.73 0 1 0 0 7.46h30.242v73.253h-49.3c-1.038 0-1.883-.87-1.883-1.939V280.425c0-.957.88-1.791 1.883-1.791h49.3z" fill="#141515" opacity="1" data-original="#141515" class=""></path><path d="M223.116 261.628c25.51 0 46.267-20.946 46.267-46.695s-20.757-46.699-46.267-46.699c-25.515 0-46.272 20.95-46.272 46.699-.001 25.749 20.756 46.695 46.272 46.695zm0-85.935c21.398 0 38.807 17.603 38.807 39.24 0 21.632-17.409 39.235-38.807 39.235-21.404 0-38.812-17.602-38.812-39.235 0-21.637 17.408-39.24 38.812-39.24z" fill="#141515" opacity="1" data-original="#141515" class=""></path><path d="M223.262 229.552c-3.25 0-5.17-1.641-5.318-5.52h-7.385c0 7.012 3.545 11.488 9.454 12.532v4.624h6.056v-4.624c6.204-1.044 9.749-5.819 9.749-11.637 0-13.128-16.987-13.427-16.987-20.737 0-2.536 1.625-4.027 4.284-4.027 2.807 0 4.432 1.64 4.579 4.923h7.533c-.148-6.415-3.398-10.742-9.158-11.786v-4.625h-6.056v4.625c-5.465 1.194-8.715 5.222-8.715 10.593 0 12.831 16.84 13.427 16.84 21.036-.002 2.684-1.626 4.623-4.876 4.623zM327.4 184.645c25.51 0 46.267-20.879 46.267-46.547 0-25.749-20.757-46.695-46.267-46.695-25.515 0-46.273 20.946-46.273 46.695 0 25.668 20.758 46.547 46.273 46.547zm0-85.782c21.398 0 38.807 17.602 38.807 39.235 0 21.55-17.409 39.087-38.807 39.087-21.403 0-38.812-17.536-38.812-39.087 0-21.633 17.409-39.235 38.812-39.235z" fill="#141515" opacity="1" data-original="#141515" class=""></path><path d="M327.398 152.72c-3.102 0-5.022-1.641-5.17-5.52h-7.533c.148 7.012 3.693 11.339 9.602 12.532v4.476h6.056v-4.476c6.204-1.194 9.749-5.819 9.749-11.637 0-13.278-16.986-13.427-16.986-20.886 0-2.387 1.477-3.879 4.283-3.879s4.431 1.641 4.579 4.924h7.533c-.148-6.416-3.398-10.742-9.158-11.786v-4.625h-6.056v4.625c-5.466 1.045-8.715 5.222-8.715 10.593 0 12.681 16.839 13.278 16.839 21.036-.001 2.683-1.625 4.623-5.023 4.623z" fill="#141515" opacity="1" data-original="#141515" class=""></path></g></g></svg>