<svg xmlns="http://www.w3.org/2000/svg" version="1.1" xmlns:xlink="http://www.w3.org/1999/xlink" width="512" height="512" x="0" y="0" viewBox="0 0 48 48" style="enable-background:new 0 0 512 512" xml:space="preserve"><g><path d="m9.52 4.66-7.13 5.55a1 1 0 0 0-.34 1.11l3 9a1 1 0 0 0 1.27.68L11 19.39V45a1 1 0 0 0 1 1h24a1 1 0 0 0 1-1V19.39L41.68 21a1 1 0 0 0 1.32-.68l3-9a1 1 0 0 0-.34-1.11l-7.18-5.55a11 11 0 0 0-4.6-2.1L31.2 2H16.8l-2.68.54a11 11 0 0 0-4.6 2.12ZM6.63 18.73l-2.46-7.38 1.24-1L8 18.27ZM28 44H13v-2h15Zm7 0h-5v-2h5Zm8.83-32.65-2.46 7.38-1.37-.46 2.63-7.88ZM31.61 4.14l1.88.38a9.09 9.09 0 0 1 3.76 1.72l3.67 2.85-2.85 8.55-1.75-.59a1 1 0 0 0-.9.14A1 1 0 0 0 35 18v22h-5V30a1 1 0 0 0-.11-.45L25.1 20ZM29.51 4 24 17.37 18.49 4Zm-13.12.14 6.68 16.23v.05L28 30.24V40H13V18a1 1 0 0 0-.42-.81 1 1 0 0 0-.9-.14l-1.75.58-2.85-8.54 3.67-2.85a9.09 9.09 0 0 1 3.76-1.72Z" fill="#000000" opacity="1" data-original="#000000"></path></g></svg>